<svg xmlns="http://www.w3.org/2000/svg" viewBox="0 0 64 64" width="64" height="64">
  <defs>
    <linearGradient id="homeSky" x1="6" y1="4" x2="58" y2="60" gradientUnits="userSpaceOnUse">
      <stop offset="0" stop-color="#eef2ff"/>
      <stop offset="1" stop-color="#c3d0ff"/>
    </linearGradient>
    <linearGradient id="homeRoof" x1="8" y1="9" x2="56" y2="33" gradientUnits="userSpaceOnUse">
      <stop offset="0" stop-color="#4f7cff"/>
      <stop offset="0.55" stop-color="#2849ff"/>
      <stop offset="1" stop-color="#101a6b"/>
    </linearGradient>
    <linearGradient id="homeWall" x1="14" y1="30" x2="50" y2="54" gradientUnits="userSpaceOnUse">
      <stop offset="0" stop-color="#ffffff"/>
      <stop offset="1" stop-color="#d5deff"/>
    </linearGradient>
    <radialGradient id="homeGlow" cx="21" cy="39.5" r="6" gradientUnits="userSpaceOnUse">
      <stop offset="0" stop-color="#fff3c4"/>
      <stop offset="1" stop-color="#ffb020"/>
    </radialGradient>
    <linearGradient id="homeDoor" x1="27" y1="37" x2="37" y2="54" gradientUnits="userSpaceOnUse">
      <stop offset="0" stop-color="#2849ff"/>
      <stop offset="1" stop-color="#101a6b"/>
    </linearGradient>
  </defs>
  <rect x="2" y="2" width="60" height="60" rx="14" fill="url(#homeSky)"/>
  <rect x="43" y="12" width="6" height="13" rx="2" fill="#101a6b"/>
  <path fill="url(#homeWall)" d="M14 30h36v22a2 2 0 0 1-2 2H16a2 2 0 0 1-2-2Z"/>
  <path fill="url(#homeRoof)" stroke="url(#homeRoof)" stroke-width="3" stroke-linejoin="round" d="M32 9 57 31H7Z"/>
  <rect x="17" y="35.5" width="8" height="8" rx="1" fill="url(#homeGlow)"/>
  <path fill="none" stroke="#101a6b" stroke-opacity="0.3" stroke-width="1.4" d="M21 35.5v8M17 39.5h8"/>
  <path fill="url(#homeDoor)" d="M32 37a5 5 0 0 1 5 5v12H27V42a5 5 0 0 1 5-5Z"/>
  <circle cx="34.6" cy="47" r="1.2" fill="#ffd166"/>
</svg>
